<svg width="61" height="41" viewBox="0 0 61 41" fill="none" xmlns="http://www.w3.org/2000/svg">
<path d="M26.9475 27.936C26.9475 23.568 24.0875 20.76 20.8635 19.824C24.0875 18.836 26.4795 15.924 26.4795 11.868V11.296C26.4795 4.95199 22.0075 0.843994 13.6355 0.843994C7.49947 0.843994 2.66347 3.65199 0.947468 9.476C0.739468 10.152 0.947468 10.516 1.41547 10.672L5.78347 12.128C6.30347 12.284 6.82347 12.076 7.03147 11.556C8.17547 8.748 9.94347 7.39599 13.6355 7.39599C17.5875 7.39599 19.0435 9.57999 19.0435 11.816V12.336C19.0435 15.04 16.9635 16.808 13.4795 16.808H10.5155C10.0475 16.808 9.99547 17.12 9.99547 17.432V22.372C9.99547 22.684 10.0995 22.944 10.5155 22.944H13.4795C17.1195 22.944 19.4595 24.868 19.4595 28.352V28.56C19.4595 31.576 17.0675 33.552 13.4795 33.552C9.42347 33.552 7.44747 31.628 6.45947 28.872C6.19947 28.092 5.62747 27.78 4.74347 28.144L0.687469 29.652C0.0114687 29.912 -0.0925315 30.38 0.0634684 31.004C1.41547 35.684 5.15947 40.156 13.6355 40.156C20.6555 40.156 26.9475 35.788 26.9475 28.716V27.936Z" fill="#373334"/>
<path d="M60.6496 14.156C60.6496 6.09599 57.0096 0.843994 46.7656 0.843994C36.5736 0.843994 32.9336 6.09599 32.9336 14.156V26.74C32.9336 34.852 36.5736 40.156 46.7656 40.156C57.0096 40.156 60.6496 34.852 60.6496 26.792V14.156ZM53.1616 25.856C53.1616 30.692 52.2256 33.552 46.7656 33.552C42.1896 33.552 40.4216 30.692 40.4216 25.804V15.092C40.4216 10.204 42.1896 7.39599 46.7656 7.39599C52.2256 7.39599 53.1616 10.204 53.1616 15.092V25.856Z" fill="#373334"/>
</svg>
