<svg width="34" height="40" viewBox="0 0 34 40" fill="none" xmlns="http://www.w3.org/2000/svg">
<path fill-rule="evenodd" clip-rule="evenodd" d="M20.85 8.07547C20.85 10.452 22.7834 12.3854 25.16 12.3854H33.2354V35.6901C33.2354 38.0666 31.302 40 28.9255 40H5.07645C2.70004 40 0.766602 38.0666 0.766602 35.6901V4.30984C0.766602 1.93336 2.70004 0 5.07652 0H20.85V8.07547ZM18.2563 22.5934L15.7459 22.5938C15.0077 22.5938 14.4072 21.9933 14.4072 21.2552C14.4072 20.5173 15.0077 19.917 15.7458 19.917L20.7667 19.9167C21.4139 19.9167 21.9386 19.392 21.9385 18.7448C21.9385 18.0976 21.4138 17.573 20.7666 17.573L18.1729 17.5731V16.2344C18.1729 15.5872 17.6482 15.0625 17.0011 15.0625C16.3538 15.0625 15.8292 15.5872 15.8292 16.2344V17.5731H15.7459C13.7154 17.5731 12.0635 19.2249 12.0635 21.2552C12.0635 23.2855 13.7154 24.9375 15.746 24.9375L18.2561 24.9372C18.9943 24.9373 19.5948 25.5379 19.5948 26.276C19.5948 27.0141 18.9944 27.6146 18.2564 27.6146H13.2354C12.5882 27.6146 12.0635 28.1393 12.0635 28.7865C12.0635 29.4337 12.5882 29.9584 13.2354 29.9584H15.8293V31.2969C15.8293 31.9441 16.3539 32.4688 17.0011 32.4688C17.6482 32.4688 18.173 31.9441 18.173 31.2969V29.9584H18.2564C20.2868 29.9584 21.9386 28.3064 21.9386 26.276C21.9386 24.2459 20.2868 22.5939 18.2563 22.5934ZM32.5475 10.0416H25.1586C24.0745 10.0416 23.1924 9.15952 23.1924 8.07539V0.686401L32.5475 10.0416Z" fill="#373334"/>
</svg>
