<svg width="522" height="247" viewBox="0 0 522 247" fill="none" xmlns="http://www.w3.org/2000/svg">
<path d="M499.09 54L499.091 53.9938C502.646 39.33 506.2 24.6663 509.755 9.93492H508.372H508.37C449.647 9.93492 390.858 9.93492 332.135 10.0025C328.646 10.0025 327 7.50188 327 4.73091C327.066 2.56821 328.317 0.608261 330.292 0.135169L330.292 0.135167C330.687 0.0675836 331.082 0 331.411 0H495.732H520.947H522C521.736 1.16036 521.451 2.32072 521.169 3.46841C520.958 4.32612 520.749 5.17675 520.552 6.01502C520.459 6.44425 520.374 6.88189 520.289 7.32201C520.133 8.12928 519.975 8.94488 519.762 9.73217C519.367 11.3993 518.913 13.0663 518.46 14.7334C518.233 15.567 518.006 16.4005 517.787 17.234C516.272 23.3167 514.758 29.3993 513.31 35.4819C512.586 38.4556 511.878 41.4462 511.17 44.4368C510.463 47.4274 509.755 50.418 509.031 53.3917C508.965 53.5945 508.702 53.9324 508.504 53.9324C505.41 54 502.25 54 499.09 54H499.09Z" fill="#9F0023"/>
<path d="M499.09 54L499.091 53.9938C502.646 39.33 506.2 24.6663 509.755 9.93492H508.372H508.37C449.647 9.93492 390.858 9.93492 332.135 10.0025C328.646 10.0025 327 7.50188 327 4.73091C327.066 2.56821 328.317 0.608261 330.292 0.135169L330.292 0.135167C330.687 0.0675836 331.082 0 331.411 0H495.732H520.947H522C521.736 1.16036 521.451 2.32072 521.169 3.46841C520.958 4.32612 520.749 5.17675 520.552 6.01502C520.459 6.44425 520.374 6.88189 520.289 7.32201C520.133 8.12928 519.975 8.94488 519.762 9.73217C519.367 11.3993 518.913 13.0663 518.46 14.7334C518.233 15.567 518.006 16.4005 517.787 17.234C516.272 23.3167 514.758 29.3993 513.31 35.4819C512.586 38.4556 511.878 41.4462 511.17 44.4368C510.463 47.4274 509.755 50.418 509.031 53.3917C508.965 53.5945 508.702 53.9324 508.504 53.9324C505.41 54 502.25 54 499.09 54H499.09Z" stroke="#F2F2F2"/>
<path d="M111.133 245.602C113.087 245.602 114.484 244.484 114.484 242.248V192.49H138.22C140.454 192.49 141.571 191.093 141.571 189.136V173.482C141.571 171.525 140.733 169.848 138.22 169.848H114.484V131.831C114.484 129.595 112.808 128.756 111.133 128.756H92.1435C90.468 128.756 88.5132 129.315 88.5132 131.831V169.848H32.9421L116.718 53.0018C117.555 51.6041 118.114 48.8087 115.601 47.4111L102.755 36.5091C100.8 35.391 98.8456 36.2296 97.7286 37.9068L1.38669 172.084C-0.00956547 174.041 -0.288818 174.6 0.269686 176.836L3.0622 189.975C3.62071 191.931 4.45846 192.49 6.13397 192.49H88.5132V242.248C88.5132 244.764 90.1888 245.602 92.1435 245.602H111.133Z" fill="#373334"/>
<path d="M310.11 101.082C310.11 60.2697 289.167 36.7887 242.811 36.7887C196.455 36.7887 175.511 60.5493 175.511 101.641V182.427C175.511 223.519 196.455 247 242.811 247C289.167 247 310.11 222.96 310.11 182.427V101.082ZM284.419 180.47C284.419 209.263 273.528 224.078 242.811 224.078C213.21 224.078 201.202 208.424 201.202 180.47V103.598C201.202 75.6442 213.21 59.7106 242.811 59.7106C273.528 59.7106 284.419 75.6442 284.419 103.598V180.47Z" fill="#373334"/>
<path d="M452.562 245.602C454.516 245.602 455.913 244.484 455.913 242.248V192.49H479.649C481.883 192.49 483 191.093 483 189.136V173.482C483 171.525 482.162 169.848 479.649 169.848H455.913V131.831C455.913 129.595 454.237 128.756 452.562 128.756H433.572C431.897 128.756 429.942 129.315 429.942 131.831V169.848H374.371L458.147 53.0018C458.984 51.6041 459.543 48.8087 457.03 47.4111L444.184 36.5091C442.229 35.391 440.274 36.2296 439.157 37.9068L342.816 172.084C341.419 174.041 341.14 174.6 341.699 176.836L344.491 189.975C345.05 191.931 345.887 192.49 347.563 192.49H429.942V242.248C429.942 244.764 431.618 245.602 433.572 245.602H452.562Z" fill="#373334"/>
</svg>
