<svg width="39" height="40" viewBox="0 0 39 40" fill="none" xmlns="http://www.w3.org/2000/svg">
<path d="M16.316 6.344C16.316 2.132 12.78 -3.09944e-06 8.412 -3.09944e-06C4.044 -3.09944e-06 0.508 2.132 0.508 6.344V13C0.508 17.316 4.044 19.396 8.36 19.396C12.728 19.396 16.316 17.316 16.316 13V6.344ZM38.468 26.78C38.468 22.516 34.932 20.28 30.512 20.28C26.196 20.28 22.66 22.516 22.66 26.78V33.28C22.66 37.596 26.196 39.624 30.512 39.624C34.88 39.624 38.468 37.596 38.468 33.28V26.78ZM10.908 12.948C10.908 14.248 10.076 15.028 8.36 15.028C6.696 15.028 5.864 14.196 5.864 12.948V6.552C5.864 5.252 6.748 4.368 8.36 4.368C10.076 4.368 10.908 5.2 10.908 6.448V12.948ZM33.008 33.228C33.008 34.528 32.176 35.308 30.512 35.308C28.796 35.308 28.016 34.476 28.016 33.228V26.78C28.016 25.532 28.796 24.596 30.512 24.596C32.228 24.596 33.008 25.532 33.008 26.78V33.228ZM11.22 39C11.896 39 12.052 38.792 12.26 38.376L32.488 1.3C32.644 0.988 32.592 0.675997 31.968 0.675997H27.548C26.768 0.675997 26.664 0.779999 26.404 1.3L6.28 38.064C5.968 38.584 5.916 39 6.696 39H11.22Z" fill="#373334"/>
</svg>
