<svg width="1503" height="400" viewBox="0 0 1503 400" fill="none" xmlns="http://www.w3.org/2000/svg">
<rect width="1503" height="400" fill="#373334"/>
<g opacity="0.1">
<path d="M1023.34 163.118C1023.16 163.305 1022.88 163.585 1022.88 163.772C1022.42 169.662 1019.82 174.336 1015.65 178.356C1013.98 179.945 1013.89 179.945 1015 182.002C1017.14 185.928 1017.97 190.229 1017.51 194.623C1016.76 200.886 1013.8 206.028 1008.7 209.861C1005.27 212.385 1001.47 214.068 997.303 214.068C958.379 214.068 919.456 213.974 880.532 213.881C866.26 213.881 852.081 213.881 837.809 213.881C837.346 213.881 836.975 213.881 836.326 213.881C836.79 212.011 837.16 210.235 837.624 208.552C840.682 196.118 843.833 183.685 846.891 171.158C847.076 170.316 847.447 170.036 848.189 170.129C851.896 170.129 855.603 170.129 859.31 170.129C860.144 170.129 860.422 170.223 860.144 171.251C858.29 178.636 856.437 185.928 854.676 193.314C854.12 195.464 853.656 197.614 853.1 199.764C852.915 200.606 853.1 200.886 853.934 200.793C854.305 200.793 854.769 200.793 855.139 200.793C902.218 200.793 949.297 200.793 996.469 200.886C998.508 200.886 1000.27 200.606 1001.84 199.203C1003.33 197.895 1004.35 196.305 1004.72 194.249C1005.64 188.826 1002.59 184.152 997.025 183.311C993.411 182.75 989.889 182.937 986.367 182.937C951.799 182.843 917.232 182.937 882.664 182.937C882.2 182.937 881.644 182.937 880.996 182.937C881.459 181.254 881.83 179.758 882.2 178.263C882.849 175.832 883.405 173.401 884.054 170.971C884.239 170.129 884.61 169.849 885.444 169.849C887.112 170.036 888.873 170.036 890.541 170.129C904.164 170.223 917.695 170.316 931.318 170.41C940.122 170.503 948.834 170.597 957.638 170.597C965.237 170.69 972.837 170.784 980.436 170.784C987.479 170.877 994.523 170.971 1001.57 170.971C1003.88 170.971 1006.01 170.223 1007.78 168.54C1009.91 166.483 1010.65 163.959 1010.46 160.968C1010.28 157.602 1007.59 154.05 1004.25 153.302C1003.33 153.115 1002.31 152.928 1001.29 152.928C986.831 152.928 972.466 152.928 958.009 152.928C930.113 152.834 902.218 152.741 874.323 152.741C847.077 152.647 819.83 152.554 792.676 152.554C791.008 152.554 791.008 152.554 790.637 154.143C787.857 165.455 785.077 176.673 782.297 187.985C780.258 196.212 778.219 204.439 776.18 212.665C776.087 213.039 775.624 213.507 775.253 213.507C771.268 213.6 767.283 213.507 763.205 213.507C763.113 213.507 762.927 213.413 762.649 213.413C763.391 210.515 764.04 207.711 764.781 204.906C768.766 188.92 772.658 173.027 776.643 157.041C778.034 151.432 779.424 145.823 780.721 140.214C780.906 139.279 781.37 139.092 782.297 139.092C830.673 139.092 879.049 139.092 927.333 139.092C953.004 139.092 978.768 139.092 1004.44 139.092C1007.03 139.092 1009.35 140.12 1011.48 141.242C1015.28 143.299 1018.06 146.29 1020.1 150.03C1021.77 153.208 1023.16 156.387 1023.25 160.033C1023.25 160.22 1023.44 160.407 1023.53 160.594C1023.34 161.529 1023.34 162.276 1023.34 163.118Z" fill="#F2F2F2"/>
<path d="M898.793 261C899.349 258.195 899.998 255.391 900.554 252.493C900.646 251.838 901.017 251.558 901.666 251.651C902.593 251.838 903.056 251.371 903.427 250.53C906.114 245.388 907.504 239.966 908.617 234.356C908.709 233.702 908.895 233.328 909.636 233.328C914.084 233.328 918.625 233.328 923.074 233.328C923.259 233.328 923.352 233.422 923.63 233.422C923.167 235.572 922.703 237.815 922.24 239.966C921.498 243.612 920.664 247.164 919.923 250.81C919.83 251.464 919.923 251.745 920.664 251.745C921.406 251.745 921.498 252.025 921.313 252.68C920.757 255.017 920.294 257.354 919.83 259.691C919.738 260.159 919.83 260.533 919.83 261C918.811 261 917.791 261 916.679 261C917.05 258.943 917.513 256.887 917.884 254.736C912.88 254.736 907.968 254.736 902.963 254.736C902.593 256.887 902.315 258.943 901.944 261C900.924 261 899.812 261 898.793 261ZM919.182 236.32C917.05 236.32 915.011 236.413 913.065 236.32C912.138 236.32 911.86 236.694 911.582 237.535C910.377 241.555 908.987 245.481 907.69 249.408C907.412 250.156 907.134 250.904 906.856 251.745C910.007 251.745 912.88 251.745 915.938 251.745C917.05 246.603 918.069 241.555 919.182 236.32Z" fill="#F2F2F2"/>
<path d="M728.821 213.696C733.825 193.409 738.83 173.122 743.834 152.742C743 152.742 742.444 152.742 741.888 152.742C659.222 152.742 576.463 152.742 493.797 152.836C488.885 152.836 486.568 149.377 486.568 145.544C486.661 142.552 488.421 139.841 491.202 139.187C491.758 139.093 492.314 139 492.777 139C569.883 139 646.989 139 724.094 139C735.957 139 747.727 139 759.589 139C760.052 139 760.516 139 761.072 139C760.423 141.805 759.682 144.609 759.033 147.32C758.662 149.003 758.384 150.779 757.921 152.462C757.087 155.921 756.067 159.38 755.141 162.839C753.009 171.253 750.877 179.667 748.839 188.08C746.8 196.307 744.854 204.627 742.815 212.854C742.722 213.135 742.351 213.602 742.073 213.602C737.718 213.696 733.269 213.696 728.821 213.696Z" fill="#D2D2D2"/>
<path d="M572.203 214.163C546.069 214.163 519.934 214.163 493.707 214.163C490.556 214.163 488.054 212.387 487.127 209.395C486.293 206.871 487.405 204.066 489.908 202.29C491.205 201.355 492.688 201.168 494.171 201.168C507.145 201.168 520.212 201.168 533.187 201.168C572.203 201.168 611.127 201.168 650.143 201.168C653.85 201.168 657.372 197.803 657.928 194.157C658.391 190.791 657.65 187.987 655.147 185.65C653.665 184.341 651.996 183.499 649.958 183.499C621.97 183.499 593.982 183.499 565.994 183.499C563.214 183.499 561.175 182.378 559.97 179.76C558.673 177.049 559.229 174.525 561.175 172.468C562.38 171.159 563.862 170.411 565.809 170.411C593.518 170.411 621.136 170.411 648.846 170.411C659.503 170.411 668.493 177.984 670.439 188.361C671.736 195.185 669.883 201.262 665.434 206.497C661.82 210.797 657.186 213.135 651.718 214.069C651.255 214.163 650.792 214.069 650.421 214.069C624.287 214.163 598.245 214.163 572.203 214.163Z" fill="#F2F2F2"/>
<path d="M864.687 254.642C863.018 254.642 861.258 254.642 859.589 254.642C858.848 254.642 858.57 254.455 858.755 253.614C860.145 247.07 861.536 240.526 862.926 233.982C863.018 233.701 863.574 233.234 863.852 233.234C867.096 233.234 870.432 233.234 873.676 233.421C875.993 233.514 877.568 235.01 878.124 237.254C878.588 239.124 877.661 241.367 875.9 242.302C875.622 242.489 875.251 242.583 874.881 242.863C874.325 243.237 874.232 243.517 874.881 243.985C875.715 244.639 876.549 245.294 877.012 246.135C878.124 248.005 877.29 249.781 876.271 251.464C875.159 253.333 873.213 254.081 871.174 254.362C868.95 254.642 866.725 254.642 864.594 254.736C864.687 254.736 864.687 254.736 864.687 254.642ZM867.003 251.651C867.93 251.651 868.857 251.651 869.784 251.651C871.452 251.557 872.749 250.996 873.491 249.407C874.232 247.631 873.491 245.761 871.544 245.481C869.32 245.2 867.003 245.294 864.687 245.294C864.501 245.294 864.223 245.668 864.223 245.855C863.852 247.444 863.482 249.127 863.111 250.716C863.018 251.277 863.204 251.651 863.852 251.651C864.965 251.651 865.984 251.651 867.003 251.651ZM865.057 242.396C867.652 242.302 869.876 242.209 872.101 242.022C873.676 241.835 874.603 240.245 874.417 238.469C874.232 237.067 873.305 236.319 871.544 236.319C870.34 236.319 869.135 236.319 868.023 236.319C866.355 236.319 866.262 236.319 865.984 238.002C865.613 239.31 865.428 240.713 865.057 242.396Z" fill="#F2F2F2"/>
<path d="M669.88 254.643C668.119 254.643 666.358 254.643 664.69 254.643C663.949 254.643 663.763 254.363 663.949 253.708C665.339 247.164 666.729 240.62 668.119 234.076C668.212 233.702 668.768 233.328 669.046 233.328C672.289 233.328 675.626 233.328 678.869 233.515C681.372 233.702 683.04 235.385 683.41 237.722C683.688 239.218 682.669 241.835 680.538 242.677C680.167 242.77 679.981 243.144 679.703 243.425C679.981 243.705 680.167 243.986 680.445 244.173C682.762 245.668 683.225 247.725 682.206 250.249C681.094 252.867 678.962 254.082 676.367 254.363C674.236 254.643 672.011 254.643 669.88 254.736C669.88 254.736 669.88 254.736 669.88 254.643ZM668.304 251.651C670.899 251.651 673.216 251.745 675.44 251.651C676.923 251.651 678.128 250.81 678.684 249.408C679.425 247.632 678.684 245.762 676.831 245.481C675.162 245.201 673.494 245.294 671.733 245.294C669.602 245.294 669.509 245.294 669.046 247.445C668.86 248.753 668.582 250.156 668.304 251.651ZM674.792 236.32C673.958 236.32 673.124 236.226 672.382 236.32C672.011 236.413 671.548 236.787 671.455 237.068C671.085 238.376 670.807 239.779 670.529 241.181C670.343 241.835 670.529 242.209 671.363 242.209C672.846 242.209 674.421 242.303 675.904 242.209C676.738 242.116 677.572 241.929 678.313 241.555C679.425 240.994 679.981 239.405 679.703 238.096C679.425 236.974 678.499 236.32 677.109 236.32C676.274 236.32 675.533 236.32 674.792 236.32Z" fill="#F2F2F2"/>
<path d="M975.154 233.328C974.227 237.815 973.301 242.209 972.374 246.603C972.467 246.697 972.559 246.79 972.745 246.79C973.301 246.323 973.857 245.949 974.32 245.388C976.73 242.49 979.139 239.592 981.641 236.787C982.197 236.133 982.661 235.572 983.217 234.917C983.958 233.889 984.792 233.141 986.183 233.422C986.739 233.515 987.387 233.422 988.129 233.422C987.758 235.198 987.387 236.787 987.109 238.47C985.997 243.705 984.885 248.847 983.773 254.082C983.68 254.363 983.217 254.83 982.939 254.83C979.417 254.83 979.881 255.391 980.622 252.119C981.271 248.847 982.012 245.575 982.754 242.303C982.846 242.022 982.661 241.648 982.568 241.368C982.29 241.555 982.012 241.555 981.827 241.835C978.583 245.668 975.34 249.595 972.096 253.428C970.984 254.736 969.223 255.391 967.74 254.923C967.555 254.83 967.277 254.363 967.369 254.082C968.018 250.904 968.76 247.725 969.408 244.546C970.15 241.181 970.798 237.909 971.54 234.543C971.725 233.796 972.003 233.515 972.745 233.609C973.301 233.328 974.135 233.328 975.154 233.328Z" fill="#F2F2F2"/>
<path d="M888.685 233.328C887.758 237.815 886.832 242.209 885.905 246.509C885.997 246.603 886.09 246.696 886.275 246.696C886.832 246.229 887.388 245.855 887.851 245.294C890.261 242.396 892.67 239.498 895.172 236.693C895.728 236.039 896.284 235.384 896.748 234.73C897.489 233.795 898.323 233.047 899.621 233.234C900.269 233.328 900.825 233.234 901.66 233.234C901.196 235.384 900.826 237.441 900.362 239.404C899.343 244.172 898.323 249.033 897.304 253.801C897.211 254.456 896.933 254.549 896.377 254.549C893.041 254.456 893.411 255.016 894.153 251.744C894.802 248.472 895.543 245.2 896.284 241.928C896.377 241.648 896.192 241.274 896.192 240.994C895.914 241.087 895.636 241.18 895.45 241.461C892.207 245.294 888.87 249.22 885.719 253.053C884.607 254.362 882.939 255.016 881.364 254.549C881.178 254.456 880.9 253.988 880.993 253.708C882.012 248.846 883.032 243.985 884.144 239.124C884.515 237.535 884.885 235.852 885.163 234.263C885.256 233.515 885.627 233.234 886.368 233.234C886.832 233.328 887.666 233.328 888.685 233.328Z" fill="#F2F2F2"/>
<path d="M747.076 242.023C746.891 247.072 744.018 252.587 738.921 254.457C734.751 255.953 730.302 255.018 727.893 251.185C726.595 249.035 726.224 246.604 726.78 244.08C727.337 241.556 728.078 239.219 729.653 237.162C731.229 235.105 733.268 233.796 735.77 233.142C738.18 232.488 740.589 232.675 742.906 233.983C745.594 235.573 747.169 238.845 747.076 242.023ZM730.395 246.137C730.395 248.38 731.044 250.344 733.175 251.372C735.399 252.4 737.531 252.12 739.384 250.624C741.423 249.128 742.35 246.885 742.906 244.454C743.369 242.584 743.369 240.621 742.535 238.751C741.052 235.386 735.955 235.105 733.36 237.91C731.322 240.247 730.395 243.052 730.395 246.137Z" fill="#F2F2F2"/>
<path d="M580.17 242.208C579.706 246.883 578.038 251.089 573.683 253.707C569.327 256.231 563.766 255.764 560.986 251.276C559.596 249.033 559.318 246.509 559.874 243.985C560.43 241.554 561.171 239.217 562.747 237.16C564.322 235.103 566.454 233.795 568.863 233.234C571.273 232.579 573.683 232.766 575.907 234.075C578.965 235.758 579.984 238.656 580.17 242.208ZM576.277 242.115C576.277 241.928 576.277 241.834 576.277 241.647C576.277 239.123 575.165 237.254 573.312 236.506C570.624 235.477 567.937 236.412 566.454 238.001C564.322 240.339 563.396 243.237 563.396 246.509C563.488 248.565 564.044 250.342 565.991 251.276C568.029 252.305 569.976 252.211 571.829 250.996C575.073 248.846 575.999 245.667 576.277 242.115Z" fill="#F2F2F2"/>
<path d="M661.724 242.208C661.261 246.883 659.593 251.089 655.237 253.707C650.881 256.231 645.321 255.764 642.54 251.276C641.15 249.033 640.872 246.509 641.428 243.985C641.984 241.554 642.726 239.217 644.301 237.16C645.877 235.103 648.008 233.795 650.418 233.234C652.827 232.579 655.237 232.766 657.461 234.075C660.519 235.758 661.631 238.656 661.724 242.208ZM645.043 246.041C645.043 248.378 645.691 249.968 646.989 250.903C649.306 252.492 652.364 252.305 654.403 250.342C656.905 247.911 657.924 244.919 657.832 241.554C657.832 239.123 656.627 237.254 654.773 236.599C651.993 235.477 649.398 236.599 648.008 238.095C645.969 240.245 645.043 243.05 645.043 246.041Z" fill="#F2F2F2"/>
<path d="M498.9 251.932C501.587 251.745 502.051 251.371 502.607 248.753C503.626 243.985 504.646 239.124 505.758 234.356C505.85 233.982 506.314 233.328 506.592 233.328C511.04 233.234 515.581 233.328 520.215 233.328C519.752 235.478 519.381 237.441 518.918 239.498C517.898 244.266 516.879 249.127 515.859 253.895C515.674 254.549 515.489 254.736 514.84 254.736C514.099 254.736 513.45 254.736 512.708 254.736C511.967 254.736 511.874 254.456 511.967 253.801C513.079 248.566 514.191 243.331 515.303 238.096C515.674 236.6 515.489 236.413 514.006 236.413C512.708 236.413 511.504 236.413 510.206 236.413C509.372 236.413 509.001 236.6 508.816 237.535C507.889 242.022 506.87 246.603 505.758 250.997C504.924 253.988 503.07 255.297 500.383 255.204C499.827 255.204 499.271 255.11 498.807 254.923C498.622 254.83 498.344 254.362 498.344 254.175C498.529 253.334 498.807 252.68 498.9 251.932Z" fill="#F2F2F2"/>
<path d="M837.347 233.328C836.791 235.852 836.327 238.283 835.864 240.714C834.937 245.107 833.918 249.501 832.991 253.895C832.898 254.55 832.62 254.643 832.064 254.643C831.323 254.643 830.674 254.643 829.933 254.643C829.191 254.643 829.006 254.363 829.191 253.708C830.303 248.473 831.416 243.238 832.528 238.002C832.898 236.413 832.806 236.32 831.138 236.32C829.84 236.32 828.635 236.32 827.338 236.32C826.504 236.32 826.226 236.6 826.04 237.442C825.021 242.022 824.187 246.603 822.889 250.997C821.963 254.55 819.553 255.671 815.939 254.923C815.753 254.83 815.568 254.736 815.29 254.643C815.475 253.802 815.753 252.867 815.939 252.025C818.719 251.745 819.275 251.277 819.831 248.286C820.851 243.612 821.777 238.844 822.797 234.17C822.889 233.796 823.353 233.328 823.723 233.328C828.172 233.328 832.62 233.328 837.347 233.328Z" fill="#F2F2F2"/>
<path d="M953.374 233.327C952.818 236.225 952.262 238.842 951.613 241.74C951.984 241.834 952.354 241.834 952.632 241.834C954.949 241.834 957.266 241.834 959.676 241.834C960.417 241.834 960.788 241.554 960.88 240.899C961.344 238.655 961.807 236.505 962.271 234.262C962.363 233.607 962.641 233.233 963.383 233.327C964.309 233.327 965.236 233.327 966.348 233.327C965.885 235.477 965.514 237.44 965.051 239.497C964.031 244.265 963.012 249.126 961.993 253.894C961.9 254.548 961.622 254.735 960.973 254.735C960.232 254.735 959.583 254.735 958.842 254.735C958.1 254.735 957.915 254.455 958.1 253.8C958.656 251.276 959.212 248.845 959.676 246.321C959.954 245.106 959.768 244.919 958.656 244.919C956.432 244.919 954.301 244.919 952.076 244.919C951.242 244.919 950.872 245.106 950.686 245.947C950.13 248.658 949.481 251.276 949.018 253.987C948.925 254.642 948.647 254.829 948.091 254.735C947.721 254.735 947.443 254.735 947.072 254.735C944.477 254.735 944.94 254.735 945.404 252.678C946.608 246.602 947.999 240.525 949.296 234.449C949.481 233.607 949.759 233.327 950.593 233.327C951.428 233.327 952.354 233.327 953.374 233.327Z" fill="#F2F2F2"/>
<path d="M929.089 251.745C933.352 251.745 937.244 251.745 941.322 251.745C941.137 252.68 940.951 253.521 940.673 254.269C940.58 254.549 940.117 254.736 939.839 254.736C935.113 254.736 930.386 254.736 925.66 254.736C924.918 254.736 924.733 254.456 924.918 253.708C926.309 247.164 927.699 240.713 929.089 234.169C929.181 233.795 929.738 233.328 930.016 233.328C934.464 233.234 939.005 233.328 943.453 233.328C944.102 233.328 944.288 233.421 944.102 234.169C943.453 236.787 943.824 236.319 941.507 236.319C938.82 236.319 936.132 236.319 933.537 236.319C932.703 236.319 932.332 236.6 932.24 237.441C932.054 238.937 931.684 240.433 931.313 242.022C931.869 242.022 932.332 242.116 932.796 242.116C935.576 242.116 938.264 242.116 941.044 242.116C942.434 242.116 942.434 242.116 942.063 243.518V243.611C941.971 244.827 941.322 245.201 940.024 245.201C937.244 245.107 934.464 245.201 931.684 245.201C930.942 245.201 930.572 245.388 930.386 246.229C929.923 247.912 929.46 249.688 929.089 251.745Z" fill="#F2F2F2"/>
<path d="M803.061 242.022C803.709 242.022 804.08 242.116 804.544 242.116C807.416 242.116 810.289 242.116 813.07 242.116C813.811 242.116 814.089 242.209 813.811 243.051C813.162 245.294 813.718 245.107 811.216 245.107C808.621 245.107 806.119 245.201 803.524 245.107C802.505 245.107 802.134 245.481 801.949 246.323C801.671 248.099 801.3 249.782 800.929 251.651C801.578 251.651 801.949 251.745 802.412 251.745C805.563 251.745 808.714 251.745 811.865 251.745C812.792 251.745 813.162 251.838 812.792 252.96C812.143 254.923 812.699 254.83 810.475 254.83C806.119 254.83 801.763 254.83 797.5 254.83C796.666 254.83 796.388 254.643 796.573 253.708C797.964 247.258 799.354 240.807 800.744 234.263C800.836 233.983 801.3 233.515 801.578 233.515C806.212 233.515 810.845 233.515 815.479 233.515C815.572 233.515 815.665 233.609 815.943 233.702C815.757 234.45 815.665 235.291 815.386 236.039C815.294 236.32 814.645 236.507 814.274 236.507C811.309 236.507 808.436 236.6 805.47 236.507C804.451 236.507 803.987 236.694 803.802 237.909C803.802 239.031 803.431 240.433 803.061 242.022Z" fill="#F2F2F2"/>
<path d="M768.673 233.515C768.488 234.356 768.395 235.197 768.024 235.852C767.931 236.132 767.283 236.319 766.912 236.319C763.946 236.319 761.073 236.413 758.108 236.319C757.088 236.319 756.625 236.506 756.532 237.628C756.44 238.75 756.162 239.872 755.791 240.994C755.513 241.928 755.884 242.115 756.718 242.115C759.591 242.115 762.464 242.115 765.244 242.115C765.615 242.115 766.078 242.115 766.634 242.115C766.449 243.05 766.263 243.892 765.985 244.64C765.893 244.92 765.244 245.107 764.873 245.107C761.908 245.107 759.035 245.107 756.069 245.107C755.235 245.107 754.772 245.294 754.586 246.229C754.308 247.725 753.937 249.22 753.659 250.81C753.474 251.651 753.937 251.838 754.679 251.838C757.923 251.838 761.166 251.838 764.317 251.838C764.688 251.838 765.151 251.838 765.707 251.838C765.522 252.773 765.337 253.614 765.059 254.362C764.966 254.643 764.502 254.83 764.224 254.83C759.405 254.83 754.679 254.83 749.86 254.83C749.118 254.83 749.026 254.456 749.211 253.801C750.323 248.566 751.528 243.237 752.64 238.002C752.918 236.787 753.103 235.478 753.381 234.356C753.474 233.982 753.938 233.515 754.308 233.515C758.849 233.421 763.39 233.515 767.931 233.515C768.209 233.328 768.395 233.421 768.673 233.515Z" fill="#F2F2F2"/>
<path d="M842.813 251.651C845.315 251.651 847.539 251.651 849.763 251.651C851.154 251.651 852.544 251.651 854.026 251.651C854.675 251.651 855.046 251.745 854.768 252.586C854.119 254.923 854.675 254.643 852.173 254.643C847.91 254.643 843.739 254.643 839.476 254.643C838.457 254.643 838.179 254.456 838.457 253.334C839.847 246.884 841.145 240.433 842.535 234.076C842.627 233.796 843.091 233.328 843.369 233.328C848.003 233.328 852.636 233.328 857.27 233.328C857.363 233.328 857.455 233.422 857.733 233.515C857.548 234.356 857.363 235.104 857.085 235.946C856.992 236.226 856.436 236.32 856.065 236.32C853.1 236.32 850.227 236.413 847.261 236.32C846.242 236.32 845.778 236.507 845.593 237.722C845.408 239.124 845.037 240.527 844.666 242.022C845.315 242.022 845.686 242.116 846.149 242.116C849.022 242.116 851.895 242.116 854.675 242.116C855.417 242.116 855.695 242.209 855.417 243.051C854.768 245.294 855.324 245.107 852.822 245.107C850.227 245.107 847.725 245.201 845.13 245.107C844.11 245.107 843.739 245.481 843.554 246.323C843.554 248.005 843.183 249.782 842.813 251.651Z" fill="#F2F2F2"/>
<path d="M1008.61 233.515C1008.42 234.263 1008.33 235.105 1008.05 235.666C1007.86 235.946 1007.31 236.226 1006.94 236.226C1003.97 236.32 1000.91 236.32 997.947 236.226C997.113 236.226 996.65 236.413 996.557 237.348C996.372 238.564 996.094 239.779 995.816 240.901C995.723 241.181 995.723 241.462 995.723 241.929C996.65 241.929 997.484 241.929 998.225 241.929C1000.73 241.929 1003.23 241.929 1005.64 241.929C1006.38 241.929 1006.66 242.023 1006.38 242.864C1005.73 245.108 1006.29 244.921 1003.79 244.921C1001.19 244.921 998.596 244.921 996.001 244.921C995.26 244.921 994.796 245.108 994.611 245.949C994.333 247.538 993.962 249.034 993.592 250.623C993.499 250.904 993.592 251.091 993.684 251.465C994.148 251.465 994.704 251.558 995.167 251.558C998.318 251.558 1001.47 251.558 1004.62 251.558C1005.45 251.558 1005.92 251.745 1005.45 252.587C1005.36 252.867 1005.27 253.241 1005.18 253.521C1005.08 254.269 1004.71 254.55 1003.97 254.55C999.338 254.55 994.611 254.55 989.977 254.55C989.143 254.55 988.958 254.363 989.143 253.521C990.533 247.071 991.924 240.62 993.314 234.076C993.406 233.702 993.87 233.235 994.148 233.235C998.782 233.141 1003.42 233.235 1008.05 233.235C1008.23 233.328 1008.33 233.422 1008.61 233.515Z" fill="#F2F2F2"/>
<path d="M535.034 249.782C532.161 249.782 529.381 249.782 526.601 249.782C526.323 249.782 525.952 250.063 525.767 250.343C525.025 251.558 524.469 252.774 523.728 253.896C523.543 254.27 522.987 254.55 522.523 254.644C521.596 254.737 520.67 254.644 519.465 254.644C520.762 252.306 521.874 250.063 523.079 247.913C524.469 245.295 525.952 242.677 527.435 240.06C528.547 238.003 529.659 235.946 530.864 233.983C531.049 233.703 531.513 233.422 531.883 233.422C532.995 233.329 534.015 233.422 535.127 233.422C535.683 233.422 535.961 233.516 536.054 234.17C536.98 240.247 538 246.323 538.927 252.4C539.019 253.148 539.112 253.896 539.297 254.737C538.278 254.737 537.258 254.831 536.332 254.644C535.961 254.55 535.59 253.989 535.498 253.615C535.312 252.4 535.22 251.185 535.034 249.782ZM528.084 246.791C529.844 246.791 531.513 246.791 533.088 246.791C534.478 246.791 534.664 246.51 534.478 245.108C534.108 242.771 533.737 240.434 533.366 238.096C533.366 237.91 533.181 237.723 533.088 237.442C532.903 237.629 532.625 237.723 532.532 237.91C531.142 240.434 529.752 242.958 528.454 245.482C528.176 245.856 528.176 246.23 528.084 246.791Z" fill="#F2F2F2"/>
<path d="M721.961 254.642C720.757 254.642 719.645 254.642 718.625 254.642C718.347 254.642 718.069 254.268 717.976 253.988C717.328 251.838 716.772 249.688 716.123 247.631C715.845 246.603 715.567 245.668 714.362 245.2C713.343 244.826 712.879 245.013 712.601 246.135C712.045 248.753 711.396 251.277 710.933 253.895C710.84 254.642 710.47 254.736 709.914 254.736C709.543 254.736 709.265 254.736 708.894 254.736C706.855 254.736 706.855 254.736 707.319 252.679C708.616 246.603 709.914 240.432 711.211 234.356C711.304 233.701 711.582 233.328 712.323 233.421C713.25 233.421 714.177 233.421 715.289 233.421C714.918 235.01 714.64 236.506 714.362 238.002C714.084 239.124 713.899 240.246 713.621 241.367C713.435 242.396 713.806 242.863 714.825 242.489C715.567 242.209 716.308 241.741 716.772 241.18C717.976 239.404 719.089 237.534 720.293 235.758C721.683 233.795 723.63 233.141 726.132 233.421C725.854 234.262 725.668 235.01 725.39 235.665C725.298 235.852 724.834 236.132 724.556 236.039C723.352 235.945 722.796 236.6 722.239 237.534C721.405 238.937 720.479 240.339 719.459 241.648C718.996 242.302 718.162 242.77 717.42 243.144C716.864 243.424 716.772 243.705 717.235 243.985C719.181 244.92 719.83 246.696 720.293 248.659C720.849 250.623 721.405 252.586 721.961 254.642Z" fill="#F2F2F2"/>
<path d="M621.323 239.217C620.025 239.311 618.913 239.498 617.708 239.591C617.616 239.404 617.43 239.311 617.337 239.124C616.874 236.226 613.816 235.758 611.592 236.319C609.275 236.88 607.885 238.469 606.958 240.62C605.938 243.05 605.475 245.481 606.031 248.099C606.402 250.062 607.514 251.558 609.553 251.931C611.777 252.305 613.723 251.651 615.113 249.688C615.577 249.127 615.855 248.379 616.318 247.631C617.43 247.818 618.635 248.005 619.84 248.192C617.894 253.895 611.684 256.793 606.494 254.456C604.085 253.334 602.695 251.277 602.231 248.659C601.49 244.64 602.324 240.9 604.548 237.535C607.143 233.608 612.796 231.832 617.059 233.702C619.469 234.637 620.859 236.506 621.323 239.217Z" fill="#F2F2F2"/>
<path d="M705.281 239.218C704.169 239.311 703.056 239.498 701.944 239.592C701.759 239.592 701.481 239.311 701.481 239.124C701.11 237.628 700.369 236.693 698.886 236.32C697.218 235.946 695.735 236.039 694.16 236.88C691.565 238.283 690.731 240.807 690.175 243.425C689.897 244.92 689.897 246.603 690.175 248.192C690.453 250.156 691.657 251.558 693.604 251.932C695.735 252.399 697.681 251.651 699.071 249.875C699.535 249.314 699.813 248.566 700.276 247.725C701.388 247.912 702.593 248.099 703.798 248.286C701.944 253.988 695.457 256.98 690.453 254.549C688.136 253.428 686.746 251.371 686.282 248.847C685.541 244.827 686.375 241.087 688.599 237.722C691.194 233.795 696.754 232.019 701.11 233.889C703.334 234.45 705.095 236.88 705.281 239.218Z" fill="#F2F2F2"/>
<path d="M483.511 237.72C484.531 235.102 486.477 233.794 488.794 233.139C491.203 232.485 493.52 232.952 495.652 234.261C498.895 236.224 498.988 240.525 495.837 242.675C495.374 242.955 495.003 243.236 494.54 243.423C493.706 243.797 493.798 244.171 494.447 244.544C498.154 246.788 497.227 251.275 494.169 253.332C490.555 255.669 486.662 255.856 482.863 253.8C481.843 253.239 481.194 251.93 480.453 250.902C480.36 250.808 480.638 250.247 480.824 250.154C481.658 249.78 482.585 249.593 483.419 249.406C483.604 249.406 484.067 249.686 484.253 249.967C485.643 252.21 489.813 252.771 491.852 250.995C492.871 250.06 493.242 248.658 492.871 247.443C492.408 245.947 491.203 245.573 489.813 245.386C489.442 245.292 488.979 245.386 488.423 245.386C488.608 244.357 488.794 243.516 488.979 242.581C489.072 242.394 489.535 242.207 489.813 242.114C490.555 241.927 491.481 242.02 492.223 241.74C493.798 241.179 494.447 239.87 494.262 238.187C494.169 237.159 493.242 236.224 491.945 236.131C490.184 235.944 488.33 236.037 487.311 237.907C487.218 238.094 486.848 238.281 486.57 238.281C485.735 238.187 484.716 237.907 483.511 237.72Z" fill="#F2F2F2"/>
<path d="M581.279 254.83C581.279 254.549 581.372 254.269 581.372 254.082C581.465 252.212 581.465 252.119 583.318 252.212C585.264 252.306 587.674 249.688 586.932 247.444C585.635 243.331 584.523 239.031 583.318 234.824C583.225 234.356 583.133 233.889 582.947 233.328C584.152 233.328 585.172 233.234 586.191 233.328C586.469 233.328 586.932 233.795 586.932 234.076C587.674 237.254 588.323 240.339 588.971 243.518C589.064 243.985 589.342 244.359 589.62 244.733C589.991 244.453 590.454 244.266 590.732 243.892C593.049 240.62 595.366 237.348 597.683 234.169C597.961 233.795 598.61 233.515 599.073 233.421C600 233.328 601.019 233.421 602.039 233.421C602.039 233.608 602.039 233.795 601.946 233.889C597.127 240.246 592.4 246.696 587.581 253.054C586.098 255.11 583.874 255.578 581.279 254.83Z" fill="#F2F2F2"/>
<path d="M626.503 254.643C627.8 248.473 629.098 242.49 630.302 236.32C628.078 236.32 626.132 236.32 623.908 236.32C624.093 235.291 624.278 234.45 624.464 233.702C624.556 233.515 624.927 233.328 625.112 233.328C630.395 233.328 635.585 233.328 641.053 233.328C640.867 234.263 640.775 235.011 640.497 235.759C640.404 236.039 639.848 236.32 639.477 236.32C637.716 236.413 635.955 236.32 634.102 236.32C633.083 241.181 632.063 245.855 631.136 250.623C630.858 251.745 630.766 252.867 630.395 253.989C630.302 254.269 629.839 254.643 629.561 254.643C628.727 254.736 627.707 254.643 626.503 254.643Z" fill="#F2F2F2"/>
<path d="M786.462 236.32C784.145 236.32 782.199 236.32 780.067 236.32C780.253 235.385 780.438 234.543 780.623 233.702C780.623 233.515 780.994 233.328 781.179 233.328C786.462 233.328 791.744 233.328 797.212 233.328C797.027 234.263 796.934 235.011 796.656 235.759C796.564 236.039 796.008 236.32 795.637 236.32C793.876 236.413 792.115 236.32 790.262 236.32C789.057 242.209 787.759 247.912 786.647 253.708C786.462 254.456 786.277 254.736 785.535 254.736C784.608 254.736 783.682 254.736 782.57 254.736C783.96 248.566 785.165 242.583 786.462 236.32Z" fill="#F2F2F2"/>
<path d="M559.501 233.514C559.316 234.169 559.223 235.01 559.038 235.758C558.945 236.038 558.482 236.225 558.111 236.225C556.721 236.319 555.331 236.225 553.848 236.225C553.478 236.225 553.014 236.225 552.643 236.319C551.439 242.115 550.141 247.911 549.029 253.614C548.844 254.362 548.658 254.642 547.917 254.642C546.99 254.642 546.064 254.642 545.044 254.642C545.507 252.399 545.971 250.248 546.434 248.098C547.176 244.452 548.01 240.9 548.751 237.254C548.936 236.599 548.658 236.225 547.917 236.225C546.156 236.225 544.488 236.225 542.449 236.225C542.635 235.291 542.727 234.543 543.005 233.701C543.098 233.514 543.469 233.234 543.747 233.234C548.936 233.234 554.219 233.234 559.409 233.234C559.316 233.327 559.316 233.421 559.501 233.514Z" fill="#F2F2F2"/>
<path d="M645.048 246.042C645.048 242.957 645.975 240.245 648.014 238.002C649.404 236.412 652.092 235.384 654.779 236.506C656.633 237.254 657.745 239.03 657.838 241.461C657.93 244.92 656.911 247.911 654.409 250.248C652.37 252.212 649.311 252.399 646.995 250.809C645.697 249.968 645.048 248.379 645.048 246.042Z" fill="#373334"/>
</g>
</svg>
